<mxfile host="app.diagrams.net" modified="2022-06-27T18:01:09.694Z" agent="5.0 (Windows NT 10.0; Win64; x64) AppleWebKit/537.36 (KHTML, like Gecko) Chrome/100.0.4896.160 YaBrowser/22.5.3.684 Yowser/2.5 Safari/537.36" etag="8ysKdoLo6LrV2M4zmabW" version="20.0.3" type="github">
  <diagram id="C5RBs43oDa-KdzZeNtuy" name="Page-1">
    <mxGraphModel dx="2062" dy="1117" grid="1" gridSize="10" guides="1" tooltips="1" connect="1" arrows="1" fold="1" page="1" pageScale="1" pageWidth="827" pageHeight="1169" math="0" shadow="0">
      <root>
        <mxCell id="WIyWlLk6GJQsqaUBKTNV-0" />
        <mxCell id="WIyWlLk6GJQsqaUBKTNV-1" parent="WIyWlLk6GJQsqaUBKTNV-0" />
        <mxCell id="6VqI4Coom4NhuBwe57Hl-2" style="edgeStyle=orthogonalEdgeStyle;rounded=0;orthogonalLoop=1;jettySize=auto;html=1;entryX=0.5;entryY=0;entryDx=0;entryDy=0;" edge="1" parent="WIyWlLk6GJQsqaUBKTNV-1" source="6VqI4Coom4NhuBwe57Hl-0" target="6VqI4Coom4NhuBwe57Hl-1">
          <mxGeometry relative="1" as="geometry" />
        </mxCell>
        <mxCell id="6VqI4Coom4NhuBwe57Hl-0" value="Начало" style="ellipse;whiteSpace=wrap;html=1;" vertex="1" parent="WIyWlLk6GJQsqaUBKTNV-1">
          <mxGeometry x="340" y="40" width="120" height="80" as="geometry" />
        </mxCell>
        <mxCell id="6VqI4Coom4NhuBwe57Hl-4" value="" style="edgeStyle=orthogonalEdgeStyle;rounded=0;orthogonalLoop=1;jettySize=auto;html=1;" edge="1" parent="WIyWlLk6GJQsqaUBKTNV-1" source="6VqI4Coom4NhuBwe57Hl-1" target="6VqI4Coom4NhuBwe57Hl-3">
          <mxGeometry relative="1" as="geometry" />
        </mxCell>
        <mxCell id="6VqI4Coom4NhuBwe57Hl-1" value="&quot;Привет, &quot; + User.Name" style="shape=parallelogram;perimeter=parallelogramPerimeter;whiteSpace=wrap;html=1;fixedSize=1;" vertex="1" parent="WIyWlLk6GJQsqaUBKTNV-1">
          <mxGeometry x="310" y="179" width="180" height="70" as="geometry" />
        </mxCell>
        <mxCell id="6VqI4Coom4NhuBwe57Hl-14" style="edgeStyle=orthogonalEdgeStyle;rounded=0;orthogonalLoop=1;jettySize=auto;html=1;exitX=0;exitY=0.5;exitDx=0;exitDy=0;entryX=0.5;entryY=0;entryDx=0;entryDy=0;" edge="1" parent="WIyWlLk6GJQsqaUBKTNV-1" source="6VqI4Coom4NhuBwe57Hl-3" target="6VqI4Coom4NhuBwe57Hl-5">
          <mxGeometry relative="1" as="geometry" />
        </mxCell>
        <mxCell id="6VqI4Coom4NhuBwe57Hl-17" style="edgeStyle=orthogonalEdgeStyle;rounded=0;orthogonalLoop=1;jettySize=auto;html=1;entryX=0.5;entryY=0;entryDx=0;entryDy=0;" edge="1" parent="WIyWlLk6GJQsqaUBKTNV-1" source="6VqI4Coom4NhuBwe57Hl-3" target="6VqI4Coom4NhuBwe57Hl-7">
          <mxGeometry relative="1" as="geometry" />
        </mxCell>
        <mxCell id="6VqI4Coom4NhuBwe57Hl-3" value="User.IsPremium != true" style="rhombus;whiteSpace=wrap;html=1;" vertex="1" parent="WIyWlLk6GJQsqaUBKTNV-1">
          <mxGeometry x="325" y="300" width="150" height="140" as="geometry" />
        </mxCell>
        <mxCell id="6VqI4Coom4NhuBwe57Hl-15" style="edgeStyle=orthogonalEdgeStyle;rounded=0;orthogonalLoop=1;jettySize=auto;html=1;entryX=0.5;entryY=0;entryDx=0;entryDy=0;exitX=0.5;exitY=1;exitDx=0;exitDy=0;" edge="1" parent="WIyWlLk6GJQsqaUBKTNV-1" source="6VqI4Coom4NhuBwe57Hl-5" target="6VqI4Coom4NhuBwe57Hl-7">
          <mxGeometry relative="1" as="geometry" />
        </mxCell>
        <mxCell id="6VqI4Coom4NhuBwe57Hl-5" value="ShowAds()" style="whiteSpace=wrap;html=1;" vertex="1" parent="WIyWlLk6GJQsqaUBKTNV-1">
          <mxGeometry x="190" y="484" width="120" height="60" as="geometry" />
        </mxCell>
        <mxCell id="6VqI4Coom4NhuBwe57Hl-7" value="Конец" style="ellipse;whiteSpace=wrap;html=1;" vertex="1" parent="WIyWlLk6GJQsqaUBKTNV-1">
          <mxGeometry x="340" y="630" width="120" height="60" as="geometry" />
        </mxCell>
        <mxCell id="6VqI4Coom4NhuBwe57Hl-18" value="Да" style="text;strokeColor=none;fillColor=none;align=left;verticalAlign=middle;spacingLeft=4;spacingRight=4;overflow=hidden;points=[[0,0.5],[1,0.5]];portConstraint=eastwest;rotatable=0;" vertex="1" parent="WIyWlLk6GJQsqaUBKTNV-1">
          <mxGeometry x="274" y="332" width="30" height="30" as="geometry" />
        </mxCell>
        <mxCell id="6VqI4Coom4NhuBwe57Hl-19" value="Нет" style="text;strokeColor=none;fillColor=none;align=left;verticalAlign=middle;spacingLeft=4;spacingRight=4;overflow=hidden;points=[[0,0.5],[1,0.5]];portConstraint=eastwest;rotatable=0;" vertex="1" parent="WIyWlLk6GJQsqaUBKTNV-1">
          <mxGeometry x="409" y="456" width="50" height="30" as="geometry" />
        </mxCell>
      </root>
    </mxGraphModel>
  </diagram>
</mxfile>
